# xmcd CD database file
#
# Track frame offsets:
#	150
#	15445
#	33145
#	51595
#	66670
#	82795
#	104395
#	126745
#	148345
#	164770
#	178495
#	192745
#	204145
#	216295
#	229045
#	243442
#	257968
#	282760
#	294584
#	307088
#
# Disc length: 4252 seconds
#
# Revision: 1
# Processed by: cddbd v1.5.2PL0 Copyright (c) Steve Scherf et al.
# Submitted via: CDex 1.70beta2
#
DISCID=44109a14
DTITLE=Various Artist - Country Tearjerkers - CD1 - (20 Original Heartbreakers)
DYEAR=2004
DGENRE=Country Classics
TTITLE0=John Berry - A Mind Of Her Own
TTITLE1=Suzy Bogguss - Someday Soon
TTITLE2=Pearl River - Fool To Fall
TTITLE3=Billy Dean - Somewhere In My Broken Heart
TTITLE4=Lacy J. Dalton - Black Coffee
TTITLE5=Steve Wariner - Holes In The Floor Of Heaven
TTITLE6=Chris Ledoux - Tougher Than The Rest
TTITLE7=Kenny Rogers - Have I Told You Lately  That I Love You?
TTITLE8=Eddie Rabbitt - On Second Thought
TTITLE9=Juice Newton - All I Have To Do Is Dream
TTITLE10=Dr. Hook - A Little Bit More
TTITLE11=Crystal Gayle - Don't It Make My Brown Eyes Blue?
TTITLE12=Glen Campbell - By The Time I Get To Phoenix
TTITLE13=Billie Jo Spears - What The World Needs Now Is Love
TTITLE14=Glen Campbell and Bobbie Gentry - My Elusive Dreams
TTITLE15=Don Williams - Another Place, Another Time
TTITLE16=Willie Nelson - Funny How Time Slips Away
TTITLE17=The Everly Brothers - Let It Be Me
TTITLE18=Wanda Jackson - Crazy
TTITLE19=Troy Shondell - This Time
EXTD=YEAR: 2004
EXTT0=
EXTT1=
EXTT2=
EXTT3=
EXTT4=
EXTT5=
EXTT6=
EXTT7=
EXTT8=
EXTT9=
EXTT10=
EXTT11=
EXTT12=
EXTT13=
EXTT14=
EXTT15=
EXTT16=
EXTT17=
EXTT18=
EXTT19=
PLAYORDER=
